<?xml version="1.0" encoding="UTF-8" standalone="no"?>
<!-- Created with Inkscape (http://www.inkscape.org/) -->

<svg
   width="67.84153mm"
   height="17.808167mm"
   viewBox="0 0 67.84153 17.808167"
   version="1.1"
   id="svg5"
   inkscape:version="1.2.2 (732a01da63, 2022-12-09)"
   sodipodi:docname="CrossingPlatData.svg"
   xmlns:inkscape="http://www.inkscape.org/namespaces/inkscape"
   xmlns:sodipodi="http://sodipodi.sourceforge.net/DTD/sodipodi-0.dtd"
   xmlns="http://www.w3.org/2000/svg"
   xmlns:svg="http://www.w3.org/2000/svg">
  <sodipodi:namedview
     id="namedview7"
     pagecolor="#ffffff"
     bordercolor="#999999"
     borderopacity="1"
     inkscape:showpageshadow="0"
     inkscape:pageopacity="0"
     inkscape:pagecheckerboard="0"
     inkscape:deskcolor="#d1d1d1"
     inkscape:document-units="mm"
     showgrid="false"
     inkscape:zoom="2.9006173"
     inkscape:cx="465.59055"
     inkscape:cy="450.76612"
     inkscape:window-width="1920"
     inkscape:window-height="1001"
     inkscape:window-x="-9"
     inkscape:window-y="-9"
     inkscape:window-maximized="1"
     inkscape:current-layer="layer1"
     showguides="true" />
  <defs
     id="defs2">
    <inkscape:path-effect
       effect="bspline"
       id="path-effect607"
       is_visible="true"
       lpeversion="1"
       weight="33.333333"
       steps="2"
       helper_size="0"
       apply_no_weight="true"
       apply_with_weight="true"
       only_selected="false" />
    <inkscape:path-effect
       effect="bspline"
       id="path-effect551"
       is_visible="true"
       lpeversion="1"
       weight="33.333333"
       steps="2"
       helper_size="0"
       apply_no_weight="true"
       apply_with_weight="true"
       only_selected="false" />
    <inkscape:path-effect
       effect="bspline"
       id="path-effect291"
       is_visible="true"
       lpeversion="1"
       weight="33.333333"
       steps="2"
       helper_size="0"
       apply_no_weight="true"
       apply_with_weight="true"
       only_selected="false" />
    <inkscape:path-effect
       effect="bspline"
       id="path-effect291-0"
       is_visible="true"
       lpeversion="1"
       weight="33.333333"
       steps="2"
       helper_size="0"
       apply_no_weight="true"
       apply_with_weight="true"
       only_selected="false" />
    <inkscape:path-effect
       effect="bspline"
       id="path-effect551-3"
       is_visible="true"
       lpeversion="1"
       weight="33.333333"
       steps="2"
       helper_size="0"
       apply_no_weight="true"
       apply_with_weight="true"
       only_selected="false" />
    <clipPath
       id="clipPath8416">
      <path
         clip-rule="nonzero"
         d="M 0,0 H 4.277344 V 6.917969 H 0 Z m 0,0"
         id="path9245" />
    </clipPath>
    <clipPath
       id="clipPath8052">
      <path
         clip-rule="nonzero"
         d="M 0,0 H 5.183594 V 6.917969 H 0 Z m 0,0"
         id="path156" />
    </clipPath>
    <clipPath
       id="clipPath4846">
      <path
         clip-rule="nonzero"
         d="M 5,1 H 8 V 5.785156 H 5 Z m 0,0"
         id="path4117" />
    </clipPath>
  </defs>
  <g
     inkscape:label="Layer 1"
     inkscape:groupmode="layer"
     id="layer1"
     transform="translate(-70.561685,-106.82779)">
    <path
       style="fill:none;stroke:#000000;stroke-width:0.264583px;stroke-linecap:butt;stroke-linejoin:miter;stroke-opacity:1"
       d="m 70.562567,107.06934 c 4.613112,0 9.081714,0 13.622581,0 4.540868,0 9.08145,0 13.673902,2.89194 4.59245,2.89193 9.23625,8.67518 13.77711,11.56681 4.54087,2.89164 8.97826,2.89164 13.42193,2.89164 4.44367,0 8.89312,0 13.34241,0"
       id="path289"
       inkscape:path-effect="#path-effect291"
       inkscape:original-d="m 70.562567,107.06934 c 4.613112,2.6e-4 9.081714,2.6e-4 13.622317,0 4.541132,2.6e-4 9.081714,2.6e-4 13.622316,0 4.64433,5.78385 9.28813,11.56709 13.93192,17.35039 4.43791,2.6e-4 8.8753,2.6e-4 13.31271,0 4.44993,2.6e-4 8.89938,2.6e-4 13.34867,0"
       sodipodi:nodetypes="cccccc" />
    <path
       style="fill:none;stroke:#000000;stroke-width:0.264583px;stroke-linecap:butt;stroke-linejoin:miter;stroke-opacity:1"
       d="m 138.4005,107.06934 c -4.52036,0 -8.89773,0 -13.34241,0 -4.44468,0 -8.88084,0 -13.42206,2.89194 -4.54122,2.89195 -9.18368,8.67352 -13.777096,11.56598 -4.593419,2.89247 -9.132583,2.89247 -13.673786,2.89247 -4.541202,0 -9.081886,0 -13.622581,0"
       id="path289-8"
       inkscape:path-effect="#path-effect291-0"
       inkscape:original-d="m 138.4005,107.06934 c -4.52036,2.6e-4 -8.89773,2.6e-4 -13.34867,0 -4.43842,2.6e-4 -8.87458,2.6e-4 -13.31271,0 -4.64402,5.78412 -9.28648,11.56569 -13.93192,17.35039 -4.541685,2.6e-4 -9.080849,2.6e-4 -13.622316,0 -4.540938,2.6e-4 -9.081622,2.6e-4 -13.622317,0"
       sodipodi:nodetypes="cccccc" />
    <path
       style="fill:#005dbb;fill-opacity:0.393064;stroke:#616161;stroke-width:0.264583px;stroke-linecap:butt;stroke-linejoin:miter;stroke-opacity:0"
       d="m 70.562567,124.41246 c 4.541038,0 9.081809,0 13.348928,-0.076 4.267118,-0.076 8.260507,-0.22804 11.693833,-1.68007 3.433327,-1.45204 6.306532,-4.20396 9.179812,-6.95594 2.77407,2.75198 5.54836,5.50418 8.92621,6.94088 3.37785,1.4367 7.35918,1.55832 11.57479,1.64953 4.21561,0.0912 8.66508,0.15203 13.11436,0.21284"
       id="path549"
       inkscape:path-effect="#path-effect551"
       inkscape:original-d="m 70.562567,124.41246 c 4.541038,2.6e-4 9.081809,2.6e-4 13.622317,0 3.99374,-0.15176 7.987128,-0.30379 11.980424,-0.45608 2.873605,-2.75178 8.619832,-8.25595 8.619832,-8.25595 0,0 5.54836,5.50418 8.32222,8.25595 3.98183,0.12189 7.96316,0.2435 11.94447,0.36486 4.44992,0.0611 8.89939,0.12189 13.34867,0.18244"
       sodipodi:nodetypes="ccccccc" />
    <path
       style="fill:#005dbb;fill-opacity:0.604046;stroke:#616161;stroke-width:0.264583px;stroke-linecap:butt;stroke-linejoin:miter;stroke-opacity:0"
       d="m 70.562567,106.96008 c 4.541041,0.0304 9.08181,0.0608 13.333736,0.15202 4.251926,0.0912 8.214916,0.24324 11.633156,1.66499 3.418241,1.42175 6.291191,4.11262 9.164471,6.80379 2.86529,-2.66077 5.73053,-5.3215 9.1237,-6.75833 3.39316,-1.43684 7.3137,-1.64968 11.4989,-1.74089 4.18521,-0.0912 8.63468,-0.0608 13.08397,-0.0304"
       id="path549-9"
       inkscape:path-effect="#path-effect551-3"
       inkscape:original-d="m 70.562567,106.96008 c 4.541039,0.0307 9.081808,0.0611 13.622317,0.0912 3.963335,0.15229 7.926325,0.30431 11.889208,0.45608 2.8736,2.69149 8.619838,8.07352 8.619838,8.07352 0,0 5.73079,-5.32122 8.59587,-7.98231 3.92101,-0.21258 7.84154,-0.42542 11.76203,-0.63853 4.44991,0.0307 8.89938,0.0611 13.34867,0.0912"
       sodipodi:nodetypes="ccccccc" />
    <path
       style="fill:#005dbb;fill-opacity:0.320809;stroke:#616161;stroke-width:0.264583px;stroke-linecap:butt;stroke-linejoin:miter;stroke-opacity:0"
       d="m 138.4005,124.23808 c -4.44929,-1e-5 -8.89873,-1e-5 -12.93193,0.0304 -4.03319,0.0304 -7.64972,0.0912 -11.04207,-1.3228 -3.39235,-1.41399 -6.56071,-4.3033 -9.72879,-7.19235 3.07687,-2.80957 6.15367,-5.61907 9.54623,-7.08937 3.39256,-1.4703 7.10021,-1.60124 11.17902,-1.6211 4.07881,-0.0199 8.52825,0.0713 12.97754,0.16256"
       id="path605"
       inkscape:path-effect="#path-effect607"
       inkscape:original-d="m 138.4005,124.23808 c -4.44929,2.6e-4 -8.89873,2.5e-4 -13.34867,-2e-5 -3.61645,0.0611 -7.23298,0.12188 -10.84987,0.18242 -3.16782,-2.88879 -9.50425,-8.66716 -9.50425,-8.66716 0,0 6.15392,-5.6188 9.2306,-8.4287 3.7082,-0.13069 7.41585,-0.26164 11.12352,-0.39286 4.44993,0.0915 8.89937,0.1827 13.34867,0.27365"
       sodipodi:nodetypes="ccccccc" />
    <g
       inkscape:label=""
       transform="translate(104.26061,108.95795)"
       id="g3236">
      <g
         clip-path="url(#clipPath8416)"
         id="g3234"
         transform="matrix(0.352778,0,0,0.352778,-0.165365,0.00136694)">
        <g
           fill="#000000"
           fill-opacity="1"
           id="g3232">
          <g
             id="g3230"
             transform="translate(0,6.9180002)">
            <path
               d="m 2.375,-6.8125 c 0,0 0,-0.109375 -0.125,-0.109375 -0.21875,0 -0.953125,0.078125 -1.21875,0.109375 -0.078125,0 -0.1875,0.015625 -0.1875,0.1875 0,0.125 0.09375,0.125 0.25,0.125 0.46875,0 0.484375,0.0625 0.484375,0.171875 0,0.0625 -0.078125,0.40625 -0.125,0.609375 l -0.828125,3.25 c -0.109375,0.5 -0.15625,0.671875 -0.15625,1.015625 0,0.9375 0.53125,1.5625 1.265625,1.5625 1.171875,0 2.40625,-1.484375 2.40625,-2.921875 0,-0.90625 -0.53125,-1.59375 -1.328125,-1.59375 -0.453125,0 -0.875,0.296875 -1.171875,0.59375 z M 1.453125,-3.046875 C 1.5,-3.265625 1.5,-3.28125 1.59375,-3.390625 2.078125,-4.03125 2.53125,-4.1875 2.796875,-4.1875 c 0.359375,0 0.625,0.296875 0.625,0.9375 0,0.59375 -0.328125,1.734375 -0.515625,2.109375 -0.328125,0.671875 -0.78125,1.03125 -1.171875,1.03125 -0.34375,0 -0.671875,-0.265625 -0.671875,-1 0,-0.203125 0,-0.390625 0.15625,-1.015625 z m 0,0"
               id="path3228" />
          </g>
        </g>
      </g>
    </g>
    <g
       inkscape:label=""
       transform="translate(104.22478,120.35998)"
       id="g3310">
      <g
         fill="#000000"
         fill-opacity="1"
         id="g12"
         transform="matrix(0.352778,0,0,0.352778,-0.143316,0.0413632)">
        <g
           id="use10"
           transform="translate(0,4.289)">
          <path
             d="m 3.953125,-3.78125 c -0.171875,0 -0.296875,0 -0.4375,0.125 -0.171875,0.15625 -0.1875,0.328125 -0.1875,0.390625 0,0.25 0.1875,0.359375 0.375,0.359375 0.28125,0 0.546875,-0.25 0.546875,-0.640625 0,-0.484375 -0.46875,-0.859375 -1.171875,-0.859375 -1.34375,0 -2.671875,1.421875 -2.671875,2.828125 0,0.90625 0.578125,1.6875 1.625,1.6875 1.421875,0 2.25,-1.0625 2.25,-1.171875 0,-0.0625 -0.046875,-0.140625 -0.109375,-0.140625 -0.0625,0 -0.078125,0.03125 -0.140625,0.109375 -0.78125,0.984375 -1.875,0.984375 -1.984375,0.984375 -0.625,0 -0.90625,-0.484375 -0.90625,-1.09375 0,-0.40625 0.203125,-1.375 0.546875,-1.984375 0.3125,-0.578125 0.859375,-1 1.40625,-1 0.328125,0 0.71875,0.125 0.859375,0.40625 z m 0,0"
             id="path18" />
        </g>
      </g>
    </g>
    <g
       inkscape:label=""
       transform="translate(110.965,114.25005)"
       id="g3396">
      <g
         clip-path="url(#clipPath8052)"
         id="g3394"
         transform="matrix(0.352778,0,0,0.352778,-0.143316,0.00136694)">
        <g
           fill="#000000"
           fill-opacity="1"
           id="g3392">
          <g
             id="g3390"
             transform="translate(0,6.9180002)">
            <path
               d="m 5.140625,-6.8125 c 0,0 0,-0.109375 -0.125,-0.109375 -0.15625,0 -1.09375,0.09375 -1.265625,0.109375 -0.078125,0.015625 -0.140625,0.0625 -0.140625,0.1875 0,0.125 0.09375,0.125 0.234375,0.125 0.484375,0 0.5,0.0625 0.5,0.171875 L 4.3125,-6.125 3.71875,-3.765625 C 3.53125,-4.140625 3.25,-4.40625 2.796875,-4.40625 c -1.15625,0 -2.390625,1.46875 -2.390625,2.921875 0,0.9375 0.546875,1.59375 1.3125,1.59375 0.203125,0 0.703125,-0.046875 1.296875,-0.75 0.078125,0.421875 0.4375,0.75 0.90625,0.75 0.359375,0 0.578125,-0.234375 0.75,-0.546875 0.15625,-0.359375 0.296875,-0.96875 0.296875,-0.984375 0,-0.109375 -0.09375,-0.109375 -0.125,-0.109375 -0.09375,0 -0.109375,0.046875 -0.140625,0.1875 -0.171875,0.640625 -0.34375,1.234375 -0.75,1.234375 -0.28125,0 -0.296875,-0.265625 -0.296875,-0.453125 0,-0.25 0.015625,-0.3125 0.046875,-0.484375 z m -2.0625,5.625 C 3.015625,-1 3.015625,-0.984375 2.875,-0.8125 2.4375,-0.265625 2.03125,-0.109375 1.75,-0.109375 c -0.5,0 -0.640625,-0.546875 -0.640625,-0.9375 0,-0.5 0.3125,-1.71875 0.546875,-2.1875 0.3125,-0.578125 0.75,-0.953125 1.15625,-0.953125 0.640625,0 0.78125,0.8125 0.78125,0.875 0,0.0625 -0.015625,0.125 -0.03125,0.171875 z m 0,0"
               id="path3388" />
          </g>
        </g>
      </g>
    </g>
    <g
       inkscape:label=""
       transform="translate(100.56635,114.43073)"
       id="g3498"
       style="fill:#bb0000;fill-opacity:1">
      <g
         fill="#000000"
         fill-opacity="1"
         id="g19"
         transform="matrix(0.352778,0,0,0.352778,-0.143316,0.0410104)"
         style="fill:#bb0000;fill-opacity:1">
        <g
           id="use17"
           transform="translate(0,4.29)"
           style="fill:#bb0000;fill-opacity:1">
          <path
             d="M 3.71875,-3.765625 C 3.53125,-4.140625 3.25,-4.40625 2.796875,-4.40625 c -1.15625,0 -2.390625,1.46875 -2.390625,2.921875 0,0.9375 0.546875,1.59375 1.3125,1.59375 0.203125,0 0.703125,-0.046875 1.296875,-0.75 0.078125,0.421875 0.4375,0.75 0.90625,0.75 0.359375,0 0.578125,-0.234375 0.75,-0.546875 0.15625,-0.359375 0.296875,-0.96875 0.296875,-0.984375 0,-0.109375 -0.09375,-0.109375 -0.125,-0.109375 -0.09375,0 -0.109375,0.046875 -0.140625,0.1875 -0.171875,0.640625 -0.34375,1.234375 -0.75,1.234375 -0.28125,0 -0.296875,-0.265625 -0.296875,-0.453125 0,-0.21875 0.015625,-0.3125 0.125,-0.75 C 3.890625,-1.71875 3.90625,-1.828125 4,-2.203125 L 4.359375,-3.59375 c 0.0625,-0.28125 0.0625,-0.296875 0.0625,-0.34375 0,-0.171875 -0.109375,-0.265625 -0.28125,-0.265625 -0.25,0 -0.390625,0.21875 -0.421875,0.4375 z M 3.078125,-1.1875 C 3.015625,-1 3.015625,-0.984375 2.875,-0.8125 2.4375,-0.265625 2.03125,-0.109375 1.75,-0.109375 c -0.5,0 -0.640625,-0.546875 -0.640625,-0.9375 0,-0.5 0.3125,-1.71875 0.546875,-2.1875 0.3125,-0.578125 0.75,-0.953125 1.15625,-0.953125 0.640625,0 0.78125,0.8125 0.78125,0.875 0,0.0625 -0.015625,0.125 -0.03125,0.171875 z m 0,0"
             id="path31"
             style="fill:#bb0000;fill-opacity:1" />
        </g>
      </g>
      <g
         clip-path="url(#clipPath4846)"
         id="g25"
         transform="matrix(0.352778,0,0,0.352778,-0.143316,0.0410104)"
         style="fill:#bb0000;fill-opacity:1">
        <g
           fill="#000000"
           fill-opacity="1"
           id="g23"
           style="fill:#bb0000;fill-opacity:1">
          <g
             id="use21"
             transform="translate(5.2659998,5.7839999)"
             style="fill:#bb0000;fill-opacity:1">
            <path
               d="m 2.265625,-4.359375 c 0,-0.109375 -0.09375,-0.265625 -0.28125,-0.265625 -0.1875,0 -0.390625,0.1875 -0.390625,0.390625 0,0.109375 0.078125,0.265625 0.28125,0.265625 0.1875,0 0.390625,-0.203125 0.390625,-0.390625 z M 0.84375,-0.8125 c -0.03125,0.09375 -0.0625,0.171875 -0.0625,0.296875 0,0.328125 0.265625,0.578125 0.65625,0.578125 0.6875,0 1,-0.953125 1,-1.0625 0,-0.09375 -0.09375,-0.09375 -0.109375,-0.09375 -0.09375,0 -0.109375,0.046875 -0.140625,0.125 -0.15625,0.5625 -0.453125,0.84375 -0.734375,0.84375 -0.140625,0 -0.171875,-0.09375 -0.171875,-0.25 0,-0.15625 0.046875,-0.28125 0.109375,-0.4375 C 1.46875,-1 1.546875,-1.1875 1.609375,-1.375 1.671875,-1.546875 1.9375,-2.171875 1.953125,-2.265625 1.984375,-2.328125 2,-2.40625 2,-2.484375 2,-2.8125 1.71875,-3.078125 1.34375,-3.078125 0.640625,-3.078125 0.328125,-2.125 0.328125,-2 c 0,0.078125 0.09375,0.078125 0.125,0.078125 0.09375,0 0.09375,-0.03125 0.125,-0.109375 C 0.75,-2.625 1.0625,-2.875 1.3125,-2.875 c 0.109375,0 0.171875,0.046875 0.171875,0.234375 0,0.171875 -0.03125,0.265625 -0.203125,0.703125 z m 0,0"
               id="path35"
               style="fill:#bb0000;fill-opacity:1" />
          </g>
        </g>
      </g>
    </g>
  </g>
</svg>
